# xmcd CD database file
#
# Track frame offsets:
#	150
#	14364
#	36948
#	61027
#	91599
#	108641
#	140969
#	158051
#	176117
#	200929
#	216363
#	227417
#	255722
#	285430
#
# Disc length: 3994 seconds
#
# Revision: 0
# Processed by: cddbd v1.5.2PL0 Copyright (c) Steve Scherf et al.
# Submitted via: CDex 1.51
#
DISCID=c90f980e
DTITLE=Southern Stompers - Zulus Ball [CD2]
DYEAR=2006
DGENRE=Jazz
TTITLE0=Froggie Moore
TTITLE1=Sweet Baby Doll
TTITLE2=At the Jazz Band Ball
TTITLE3=Mean Blues
TTITLE4=Royal Garden Blues
TTITLE5=Where Did You Stay Last Night ?
TTITLE6=Mandy Lee Blues
TTITLE7=Cast Away
TTITLE8=Darktown Strutter's Ball
TTITLE9=Terrible Blues
TTITLE10=Canal Street Blues
TTITLE11=Krooked Blues
TTITLE12=Southern Stomps
TTITLE13=Tears
EXTD=YEAR: 2006
EXTT0=
EXTT1=
EXTT2=
EXTT3=
EXTT4=
EXTT5=
EXTT6=
EXTT7=
EXTT8=
EXTT9=
EXTT10=
EXTT11=
EXTT12=
EXTT13=
PLAYORDER=
